<mxfile host="app.diagrams.net" modified="2024-06-18T03:21:17.510Z" agent="Mozilla/5.0 (X11; Linux x86_64) AppleWebKit/537.36 (KHTML, like Gecko) Chrome/126.0.0.0 Safari/537.36" version="24.5.5" etag="_l_0RN9a1mqduu3NWwMU" type="github">
  <diagram name="Halaman-1" id="5yhhbMqd3RVReaOzjLoG">
    <mxGraphModel>
      <root>
        <mxCell id="0" />
        <mxCell id="1" parent="0" />
      </root>
    </mxGraphModel>
  </diagram>
</mxfile>
